<?xml version="1.0" standalone="no"?>
<!DOCTYPE svg PUBLIC "-//W3C//DTD SVG 20010904//EN"
 "http://www.w3.org/TR/2001/REC-SVG-20010904/DTD/svg10.dtd">
<svg version="1.0" xmlns="http://www.w3.org/2000/svg"
 width="100.000000pt" height="100.000000pt" viewBox="0 0 100.000000 100.000000"
 preserveAspectRatio="xMidYMid meet">
<metadata>
Created by potrace 1.11, written by Peter Selinger 2001-2013
</metadata>
<g transform="translate(0.000000,100.000000) scale(0.100000,-0.100000)"
fill="#000000" stroke="none">
<path d="M0 500 l0 -500 500 0 500 0 0 500 0 500 -500 0 -500 0 0 -500z m280
70 c-13 -13 -20 -33 -20 -58 0 -21 -5 -43 -12 -50 -9 -9 -9 -15 0 -24 7 -7 12
-28 12 -48 0 -19 7 -46 16 -58 20 -29 13 -38 -10 -13 -10 11 -20 39 -23 63 -3
24 -12 49 -21 56 -14 11 -14 13 0 25 9 6 18 31 21 55 6 46 21 72 43 72 10 0 8
-6 -6 -20z m434 -2 c9 -12 16 -39 16 -60 0 -25 6 -40 17 -47 17 -9 17 -10 0
-28 -9 -11 -17 -36 -17 -56 0 -35 -33 -87 -47 -73 -3 3 2 12 11 21 9 9 16 31
16 48 0 18 6 42 14 53 12 17 12 22 0 39 -8 10 -14 34 -14 54 0 19 -7 43 -17
53 -9 10 -11 18 -5 18 6 0 18 -10 26 -22z m-289 -175 c-11 -47 -107 -41 -113
7 l-3 25 24 -29 c18 -22 28 -27 46 -21 30 9 41 42 43 128 l2 72 3 -80 c2 -44
1 -90 -2 -102z m85 132 l0 -45 55 0 55 0 0 45 c0 33 4 45 15 45 12 0 15 -18
15 -105 0 -87 -3 -105 -15 -105 -11 0 -15 12 -15 50 l0 50 -55 0 -55 0 0 -50
c0 -38 -4 -50 -15 -50 -12 0 -15 18 -15 105 0 87 3 105 15 105 11 0 15 -12 15
-45z"/>
</g>
</svg>
